<svg width="200" height="100" viewBox="0 0 200 100" xmlns="http://www.w3.org/2000/svg">
  <defs>
    <linearGradient id="gradient1-dark" x1="0%" y1="0%" x2="100%" y2="100%">
      <stop offset="0%" style="stop-color:#4ECDC4;stop-opacity:1" />
      <stop offset="100%" style="stop-color:#6C7CE7;stop-opacity:1" />
    </linearGradient>
  </defs>
  
  <!-- Background for dark mode - dark/transparent -->
  <rect width="200" height="100" fill="#1a1a1a" rx="8"/>
  
  <!-- Shield/helmet icon -->
  <g transform="translate(60, 20)">
    <!-- Main helmet shape -->
    <path d="M40 5 C50 5, 60 10, 60 25 L60 40 C60 50, 50 55, 40 55 C30 55, 20 50, 20 40 L20 25 C20 10, 30 5, 40 5 Z" 
          fill="none" stroke="url(#gradient1-dark)" stroke-width="3"/>
    
    <!-- Speed lines -->
    <g stroke="url(#gradient1-dark)" stroke-width="2.5" stroke-linecap="round">
      <line x1="5" y1="15" x2="15" y2="15"/>
      <circle cx="18" cy="15" r="1.5" fill="url(#gradient1-dark)"/>
      <circle cx="22" cy="15" r="1.5" fill="url(#gradient1-dark)"/>
      
      <line x1="10" y1="25" x2="20" y2="25"/>
      <line x1="2" y1="25" x2="8" y2="25"/>
      <circle cx="25" cy="25" r="1.5" fill="url(#gradient1-dark)"/>
      <circle cx="29" cy="25" r="1.5" fill="url(#gradient1-dark)"/>
      <circle cx="33" cy="25" r="1.5" fill="url(#gradient1-dark)"/>
      
      <line x1="5" y1="35" x2="15" y2="35"/>
      <line x1="18" y1="35" x2="28" y2="35"/>
      <circle cx="31" cy="35" r="1.5" fill="url(#gradient1-dark)"/>
      <circle cx="35" cy="35" r="1.5" fill="url(#gradient1-dark)"/>
      
      <line x1="0" y1="45" x2="10" y2="45"/>
      <line x1="13" y1="45" x2="23" y2="45"/>
    </g>
  </g>
  
  <!-- Text: atraiva.ai -->
  <text x="100" y="80" text-anchor="middle" font-family="Inter, -apple-system, BlinkMacSystemFont, sans-serif" font-size="18" font-weight="600" fill="#ffffff">
    atraiva<tspan fill="url(#gradient1-dark)">.ai</tspan>
  </text>
</svg>